<svg xmlns="http://www.w3.org/2000/svg" viewBox="0 0 1281.57 133.71"><defs><style>.cls-1{fill:#f15a24;}.cls-2{fill:#fff;}.cls-3{fill:#339;}</style></defs><g id="Capa_2" data-name="Capa 2"><g id="Capa_2-2" data-name="Capa 2"><path class="cls-1" d="M82.28,128.71a4,4,0,0,1-4-4.62l10.13-64h1187.9l-10.85,68.49a1.22,1.22,0,0,1-.18.13Z"/><path class="cls-2" d="M1270.5,65.09l-9.28,58.62H83.45l9.28-58.62H1270.5m7.35-10H84.19l-10.8,68.22a9,9,0,0,0,8.89,10.4H1265.4a5.3,5.3,0,0,0,5-4.35l11.07-69.91a3.63,3.63,0,0,0-3.67-4.36Z"/><polygon class="cls-3" points="5.49 73.62 16.36 5 1226.57 5 1215.7 73.62 5.49 73.62"/><path class="cls-2" d="M21.56,4.09h0M1220.71,10l-9.28,58.62H11.34L20.63,10H1220.71m11.71-10h0Zm0,0H14.6a3.06,3.06,0,0,0-2.91,2.52L0,76.1a2.1,2.1,0,0,0,2.12,2.52H1220L1232.42,0Z"/></g></g></svg>