<svg xmlns="http://www.w3.org/2000/svg" viewBox="0 0 430.28 416.86"><defs><style>.cls-1{fill:none;stroke:#f63;stroke-linecap:round;stroke-miterlimit:10;stroke-width:10px;}.cls-2{fill:#f63;}</style></defs><g id="Capa_2" data-name="Capa 2"><g id="Capa_2-2" data-name="Capa 2"><path class="cls-1" d="M5,5C223.65,5,400.58,181.93,400.58,400.58"/><path class="cls-2" d="M372.33,376.48a18.65,18.65,0,0,1-1.27-3,3.79,3.79,0,0,1,.27-3,9.42,9.42,0,0,1,3.45-3.2,8.23,8.23,0,0,1,4.48-1.47,4,4,0,0,1,2.7,1.26,16.25,16.25,0,0,1,1.91,2.66l16,27.95,17.52-26.86a16.33,16.33,0,0,1,2.1-2.58,3.69,3.69,0,0,1,2.82-1.05,9.4,9.4,0,0,1,4.3,1.64,8.51,8.51,0,0,1,3.34,3.36,3.88,3.88,0,0,1,.1,3,16.21,16.21,0,0,1-1.45,2.84L405,413.91a7.31,7.31,0,0,1-1.71,2,5.73,5.73,0,0,1-3.94,1,6.47,6.47,0,0,1-3.56-1.1,6.66,6.66,0,0,1-2.11-2.19Z"/></g></g></svg>