<svg xmlns="http://www.w3.org/2000/svg" viewBox="0 0 530.08 545.14"><defs><style>.cls-1{fill:#003;}.cls-2{fill:#339;}.cls-3{fill:#f63;}.cls-4{fill:#fff;}.cls-5{fill:none;stroke:#fff;stroke-miterlimit:10;stroke-width:3px;}</style></defs><g id="Gabinete"><path class="cls-1" d="M409.7,134.55h0L265,166.61V405.7l140.84,38.94a5,5,0,0,0,6.28-4.77V140.76A12,12,0,0,0,409.7,134.55Z"/><path class="cls-2" d="M259.57,400.52l150,39.24a2.73,2.73,0,0,1,.53,5.06l-131,70.89a20.38,20.38,0,0,1-18.85,0Z"/><path class="cls-1" d="M239.87,394.33,398.2,436.77,259.42,509.52c-5.9,3.08-10.27,1.12-16.18-2Z"/><path class="cls-1" d="M409.7,134.5c-.63-.61-1.33-1.15-2-1.71a15.77,15.77,0,0,0-1.44-1.15l-.71-.38L275.68,77a26,26,0,0,0-20,0L113,136.45a1,1,0,0,0,.18,1.88L255.6,168.69l154.09-34.15Z"/><path class="cls-2" d="M411.29,137.22c-.18-.42-1-1.8-1.17-2.09L410,135a2.51,2.51,0,0,1-.32-.41h0c-.13-.13-.25-.27-.39-.4-.52-.46-1.07-.89-1.6-1.34a15.77,15.77,0,0,0-1.44-1.15l-.71-.38L275.68,77a26,26,0,0,0-20,0l7.77,10.1,148,50.53Z"/><path class="cls-2" d="M112.71,443.68l146.86,71.87a5,5,0,0,0,7.27-4.41v-2.38L265,80.6A5,5,0,0,0,258.12,76l-145,60.38A5,5,0,0,0,110,141V439.27A5,5,0,0,0,112.71,443.68Z"/></g><g id="Puerta"><path class="cls-3" d="M406.25,449.15,280.94,514.41A10.9,10.9,0,0,1,265,504.74V89.21a10.9,10.9,0,0,1,15.09-10.07L405.4,131.32a10.89,10.89,0,0,1,6.72,10.06v298.1A10.92,10.92,0,0,1,406.25,449.15Z"/><path class="cls-4" d="M350.45,196.06c-.78-.15-1.56-.33-2.35-.45-.6-.09-1.14-.41-1.37-1.49a3.14,3.14,0,0,1,.43-2.48c3.49-5.4,6.89-10.73,10.25-16,1-1.62,2.06-3.26,3.09-4.87.38-.59.78-1,1.37-.4a3.28,3.28,0,0,1,.74,2.64c-.3,4.21-.59,8.42-.91,12.64q-.42,5.7-.88,11.39c-.07.92.2,1.07.62,1.14,1.46.26,2.92.58,4.36.83.61.11,1.15.46,1.39,1.55a3.18,3.18,0,0,1-.47,2.57q-5.45,9.06-11.1,18.52c-.59,1-1.15,2-1.75,3-.4.65-.88,1-1.46.44a2.82,2.82,0,0,1-.69-2.4c.25-3.59.5-7.17.77-10.74.35-4.77.73-9.53,1.1-14.27.06-.8-.12-1.07-.56-1.14C352.17,196.42,351.31,196.23,350.45,196.06Z"/><path class="cls-4" d="M382.31,348.56l-66.13,13.78a10.14,10.14,0,0,1-12.2-9.93v-6.33a10.14,10.14,0,0,1,8.67-10l66.13-9.64a10.14,10.14,0,0,1,11.6,10v2.2A10.14,10.14,0,0,1,382.31,348.56Z"/><path class="cls-4" d="M383.23,384.49,317.1,404.86A10.13,10.13,0,0,1,304,395.18v-5.89a10.13,10.13,0,0,1,7.72-9.84l66.12-16.25A10.14,10.14,0,0,1,390.38,373v1.76A10.14,10.14,0,0,1,383.23,384.49Z"/><path class="cls-4" d="M384,418.58l-66.12,26.67A10.13,10.13,0,0,1,304,435.86v-5.3a10.13,10.13,0,0,1,6.87-9.59L377,398.43A10.14,10.14,0,0,1,390.38,408v1.17A10.12,10.12,0,0,1,384,418.58Z"/><path class="cls-5" d="M351.9,138.51a5.62,5.62,0,0,1,10.66.41l14.2,48.65,14.89,51a5.62,5.62,0,0,1-5.83,7.18l-28-2.12L321,240.8a5.62,5.62,0,0,1-4.83-7.59l20.72-54.89Z"/></g><g id="Capa_4" data-name="Capa 4"><rect class="cls-4" x="258.36" y="133.12" width="13.29" height="77.57" rx="6.64"/><rect class="cls-4" x="258.36" y="383.16" width="13.29" height="77.57" rx="6.64"/><path class="cls-4" d="M407.5,283.91c0,6.29-2.55,11.55-5.76,11.76s-5.95-4.87-5.95-11.38,2.69-11.77,5.95-11.76S407.5,277.63,407.5,283.91Z"/></g></svg>